{"title":"Drive Angry 2011 BRRip x264 Feel-Free","uid":6393630,"size":2714288272,"categoryP":"video","categoryS":"movies","magnet":"?xt=urn:btih:03845ff6e436c2d8f61311191c9f34725652be1a&amp;dn=Drive+Angry+2011+BRRip+x264+Feel-Free&amp;tr=udp%3A%2F%2Ftracker.openbittorrent.com%3A80&amp;tr=udp%3A%2F%2Fopen.demonii.com%3A1337&amp;tr=udp%3A%2F%2Ftracker.coppersurfer.tk%3A6969&amp;tr=udp%3A%2F%2Fexodus.desync.com%3A6969","seeders":0,"leechers":1,"uploader":"hiest","files":-1,"time":1305443285,"description":"Full Credits to (Pitic):\n\n\n ######## ######## ######## ##          ######## ########  ######## ######\n ##       ##       ##       ##          ##       ##     ## ##       ##       \n ##       ##       ##       ##          ##       ##     ## ##       ##       \n ######   ######   ######   ##          ######   ########  ######   ######   \n ##       ##       ##       ##          ##       ##   ##   ##       ##       \n ##       ##       ##       ##          ##       ##    ##  ##       ##       \n ##       ######## ######## ########    ##       ##     ## ######## ######\n\nGenre:Action | Fantasy | Thriller\n Language:English\n IMDb: &lt;a href=&quot;\nhttp://www.imdb.com/title/tt1502404/&quot; rel=&quot;nofollow&quot; target=&quot;_NEW&quot;&gt;\nhttp://www.imdb.com/title/tt1502404/&lt;/a&gt;\n Source:.1080p.BluRay.x264-TWiZTED\n Subtitles:Romana\n\n Format : MPEG-4\n Format profile : Base Media\n Codec ID : isom\n File size : 2.52 GiB\n Duration : 1h 44mn\n Overall bit rate : 3 450 Kbps\n\n Video\n ID : 1\n Format : AVC\n Format/Info : Advanced Video Codec\n Format profile : &lt;a class=&quot;__cf_email__&quot; href=&quot;/cdn-cgi/l/email-protection&quot; data-cfemail=&quot;5119383639111d657f60&quot;&gt;[email&amp;#160;protected]&lt;/a&gt;&lt;script cf-hash='f9e31' type=&quot;text/javascript&quot;&gt;\n/* &lt;![CDATA[ */!function(){try{var t=&quot;currentScript&quot;in document?document.currentScript:function(){for(var t=document.getElementsByTagName(&quot;script&quot;),e=t.length;e--;)if(t[e].getAttribute(&quot;cf-hash&quot;))return t[e]}();if(t&amp;&amp;t.previousSibling){var e,r,n,i,c=t.previousSibling,a=c.getAttribute(&quot;data-cfemail&quot;);if(a){for(e=&quot;&quot;,r=parseInt(a.substr(0,2),16),n=2;a.length-n;n+=2)i=parseInt(a.substr(n,2),16)^r,e+=String.fromCharCode(i);e=document.createTextNode(e),c.parentNode.replaceChild(e,c)}}}catch(u){}}();/* ]]&gt; */&lt;/script&gt;\n Format settings, CABAC : Yes\n Format settings, ReFrames : 3 frames\n Codec ID : avc1\n Codec ID/Info : Advanced Video Coding\n Duration : 1h 44mn\n Bit rate mode : Variable\n Bit rate : 3 000 Kbps\n Maximum bit rate : 13.7 Mbps\n Width : 1 280 pixels\n Height : 720 pixels\n Display aspect ratio : 16:9\n Frame rate mode : Constant\n Frame rate : 23.976 fps\n Color space : YUV\n Chroma subsampling : 4:2:0\n Bit depth : 8 bits\n Scan type : Progressive\n Bits/(Pixel*Frame) : 0.136\n Stream size : 2.19 GiB (87%)\n Writing library : x264\n\n Audio\n ID : 2\n Format : AAC\n Format/Info : Advanced Audio Codec\n Format version : Version 4\n Format profile : LC\n Format settings, SBR : No\n Codec ID : 40\n Duration : 1h 44mn\n Bit rate mode : Variable\n Bit rate : 445 Kbps\n Maximum bit rate : 535 Kbps\n Channel(s) : 6 channels\n Channel positions : Front: L C R, Side: L R, LFE\n Sampling rate : 48.0 KHz\n Stream size : 333 MiB (13%)\n\n\n Plot:\n A vengeful father escapes from hell and chases after the men who killed his daughter and kidnapped his granddaughter.\n\n\nGreets:\n\n INK,CRYS,IMAGINE,LKRG,FXG,3Li,FLAWL3SS,TA,iLLUSiON,ViSiON,DTRG SAFCuk009,LU,TheFalcon007,MYSTiC,PrisM,Noir,WBZ,LAP,Rx,Kingdom,SAFCuk009+Fabreezy,HDLiTE,TWiZTED,ExtraTorrentRG.ELEKTRI4KA,MAGNAT,CM8\n And to all the other p2p grps past and present\n\n\n\n\n----------------------------------                       &lt;a href=&quot;\nhttp://thepiratebay.se/user/hiest&quot; rel=&quot;nofollow&quot; target=&quot;_NEW&quot;&gt;\nhttp://thepiratebay.se/user/hiest&lt;/a&gt;\n----------------------------------\n\n\n\n\nScreenshots:\n &lt;a href=&quot;\nhttp://www.pix2links.com/images/35345235656359390431.png&quot; rel=&quot;nofollow&quot; target=&quot;_NEW&quot;&gt;\nhttp://www.pix2links.com/images/35345235656359390431.png&lt;/a&gt;\n &lt;a href=&quot;\nhttp://www.pix2links.com/images/65852607333081922991.png&quot; rel=&quot;nofollow&quot; target=&quot;_NEW&quot;&gt;\nhttp://www.pix2links.com/images/65852607333081922991.png&lt;/a&gt;\n &lt;a href=&quot;\nhttp://www.pix2links.com/images/33930463787486742744.png&quot; rel=&quot;nofollow&quot; target=&quot;_NEW&quot;&gt;\nhttp://www.pix2links.com/images/33930463787486742744.png&lt;/a&gt;\n &lt;a href=&quot;\nhttp://www.pix2links.com/images/05303517864010612102.png&quot; rel=&quot;nofollow&quot; target=&quot;_NEW&quot;&gt;\nhttp://www.pix2links.com/images/05303517864010612102.png&lt;/a&gt;\n &lt;a href=&quot;\nhttp://www.pix2links.com/images/54655872235215398817.png&quot; rel=&quot;nofollow&quot; target=&quot;_NEW&quot;&gt;\nhttp://www.pix2links.com/images/54655872235215398817.png&lt;/a&gt;\n &lt;a href=&quot;\nhttp://www.pix2links.com/images/98362147178425607605.png&quot; rel=&quot;nofollow&quot; target=&quot;_NEW&quot;&gt;\nhttp://www.pix2links.com/images/98362147178425607605.png&lt;/a&gt;\n\n\nFull Credits to (Pitic):\n\n ######## ######## ######## ##          ######## ########  ######## ######\n ##       ##       ##       ##          ##       ##     ## ##       ##       \n ##       ##       ##       ##          ##       ##     ## ##       ##       \n ######   ######   ######   ##          ######   ########  ######   ######   \n ##       ##       ##       ##          ##       ##   ##   ##       ##       \n ##       ##       ##       ##          ##       ##    ##  ##       ##       \n ##       ######## ######## ########    ##       ##     ## ######## ######\t","torrent":{"xt":"urn:btih:03845ff6e436c2d8f61311191c9f34725652be1a","amp;dn":"Drive+Angry+2011+BRRip+x264+Feel-Free","amp;tr":["udp%3A%2F%2Ftracker.openbittorrent.com%3A80","udp%3A%2F%2Fopen.demonii.com%3A1337","udp%3A%2F%2Ftracker.coppersurfer.tk%3A6969","udp%3A%2F%2Fexodus.desync.com%3A6969"],"infoHash":"03845ff6e436c2d8f61311191c9f34725652be1a","infoHashBuffer":{"type":"Buffer","data":[3,132,95,246,228,54,194,216,246,19,17,25,28,159,52,114,86,82,190,26]},"announce":[],"urlList":[]}}